# xmcd
#
# Track frame offsets:
#	151
#	20459
#	42465
#	59709
#	75691
#	101006
#	124833
#	145395
#	164756
#	189257
#	206862
#	229770
#	246877
#	277365
#	299988
#	324465
#
# Disc length: 4601
#
# Revision: 1
# Processed by: cddbd v1.5.1PL0 Copyright (c) Steve Scherf et al.
# Submitted via: CDex 1.50beta8
# Normalized: r0:TDELIM( - )
#
DISCID=0911f710
DTITLE=Various Artist - Blues Way Volume 10
DYEAR=1900
DGENRE=Blues
TTITLE0=Snowy White - Blues is The Road
TTITLE1=Tommy Castro Band - I Ain`t Gonna Make The Call
TTITLE2=Robben Ford - Up The Line
TTITLE3=Rod Piazza - Twist City
TTITLE4=Tinsley Ellis - Mystery to Me
TTITLE5=Buddy Miles - Texas Cannonball
TTITLE6=Volker Strifler Band - I Smell Trouble
TTITLE7=Charlie Muselwhite - Trail of Tears
TTITLE8=Colin James - Why`d You Lie
TTITLE9=Cotton, Wells, Bell, Branch - Lock
TTITLE10=Ronnie Earl and Pinetop Perkins - Kidney Stew
TTITLE11=Deborah Coleman - Bendin Like a Willow Tree
TTITLE12=The Jeff Healey Band - As The Years Go Passing By
TTITLE13=Omar and The owlers - Life without You
TTITLE14=Walter Trout Band - Running in Place
TTITLE15=Dave Meniketti - Say Goodbye
EXTD=
EXTT0=
EXTT1=
EXTT2=
EXTT3=
EXTT4=
EXTT5=
EXTT6=
EXTT7=
EXTT8=
EXTT9=
EXTT10=
EXTT11=
EXTT12=
EXTT13=
EXTT14=
EXTT15=
PLAYORDER=
